<?xml version="1.0" encoding="utf-8"?>
<!-- Generator: Adobe Illustrator 24.0.0, SVG Export Plug-In . SVG Version: 6.00 Build 0)  -->
<svg version="1.1" id="Layer_1" xmlns="http://www.w3.org/2000/svg" xmlns:xlink="http://www.w3.org/1999/xlink" x="0px" y="0px"
	 viewBox="0 0 1080 1080" style="enable-background:new 0 0 1080 1080;" xml:space="preserve">
<g>
	<path d="M789.7,350.8H290.3c-33.4,0-60.5-27.1-60.5-60.5v0c0-33.4,27.1-60.5,60.5-60.5h499.4c33.4,0,60.5,27.1,60.5,60.5v0
		C850.2,323.7,823.1,350.8,789.7,350.8z"/>
	<path d="M789.7,600.5H290.3c-33.4,0-60.5-27.1-60.5-60.5v0c0-33.4,27.1-60.5,60.5-60.5h499.4c33.4,0,60.5,27.1,60.5,60.5v0
		C850.2,573.4,823.1,600.5,789.7,600.5z"/>
	<path d="M789.7,850.2H290.3c-33.4,0-60.5-27.1-60.5-60.5v0c0-33.4,27.1-60.5,60.5-60.5h499.4c33.4,0,60.5,27.1,60.5,60.5v0
		C850.2,823.1,823.1,850.2,789.7,850.2z"/>
</g>
</svg>
