<?xml version="1.0" encoding="utf-8"?>
<!-- Generator: Adobe Illustrator 24.0.0, SVG Export Plug-In . SVG Version: 6.00 Build 0)  -->
<svg version="1.1" id="Layer_1" xmlns="http://www.w3.org/2000/svg" xmlns:xlink="http://www.w3.org/1999/xlink" x="0px" y="0px"
	 viewBox="0 0 1080 1080" style="enable-background:new 0 0 1080 1080;" xml:space="preserve">
<style type="text/css">
	.st0{display:none;fill:#FFFFFF;stroke:#000000;stroke-miterlimit:10;}
</style>
<rect x="229.8" y="229.8" class="st0" width="620.4" height="620.4"/>
<path d="M765.5,851.1L228.9,314.5c-23.6-23.6-23.6-61.9,0-85.6l0,0c23.6-23.6,61.9-23.6,85.6,0l536.6,536.6
	c23.6,23.6,23.6,61.9,0,85.6l0,0C827.5,874.7,789.2,874.7,765.5,851.1z"/>
<path d="M314.5,851.1l536.6-536.6c23.6-23.6,23.6-61.9,0-85.6l0,0c-23.6-23.6-61.9-23.6-85.6,0L228.9,765.5
	c-23.6,23.6-23.6,61.9,0,85.6l0,0C252.5,874.7,290.8,874.7,314.5,851.1z"/>
</svg>
